<?xml version="1.0" standalone="no"?><svg xmlns="http://www.w3.org/2000/svg" viewBox="0 0 1440 320"><path fill="#a2d9ff" fill-opacity="1" d="M0,224L24,229.3C48,235,96,245,144,245.3C192,245,240,235,288,218.7C336,203,384,181,432,170.7C480,160,528,160,576,149.3C624,139,672,117,720,144C768,171,816,245,864,266.7C912,288,960,256,1008,234.7C1056,213,1104,203,1152,176C1200,149,1248,107,1296,112C1344,117,1392,171,1416,197.3L1440,224L1440,320L1416,320C1392,320,1344,320,1296,320C1248,320,1200,320,1152,320C1104,320,1056,320,1008,320C960,320,912,320,864,320C816,320,768,320,720,320C672,320,624,320,576,320C528,320,480,320,432,320C384,320,336,320,288,320C240,320,192,320,144,320C96,320,48,320,24,320L0,320Z"></path></svg>